<?xml version="1.0" encoding="UTF-8" standalone="no"?>
<!-- Created with Inkscape (http://www.inkscape.org/) -->
<svg xmlns:rdf="http://www.w3.org/1999/02/22-rdf-syntax-ns#" xmlns="http://www.w3.org/2000/svg" height="39.8362" width="296.231" version="1.1" xmlns:cc="http://creativecommons.org/ns#" xmlns:dc="http://purl.org/dc/elements/1.1/">
 <metadata>
  <rdf:RDF>
   <cc:Work rdf:about="">
    <dc:format>image/svg+xml</dc:format>
    <dc:type rdf:resource="http://purl.org/dc/dcmitype/StillImage"/>
    <dc:title/>
   </cc:Work>
  </rdf:RDF>
 </metadata>
 <path d="m159.475,8.46278c-6.29335,0-12.1087,3.52507-13.151,8.94213-0.073,0.35848-0.10622,0.69705-0.13941,1.04225,0.99578-1.44057,2.77492-2.46954,4.97891-2.46954,3.0471,0,4.54741,1.95173,4.12918,4.2885-0.49125,2.51601-2.83466,4.2354-5.74234,4.2354-0.10622,0-0.21244-0.0133-0.31865-0.0133,1.74594,1.14847,4.12917,1.77249,6.86426,1.77249,6.31326,0,12.0755-3.31263,13.1244-8.85582,1.03562-5.41706-3.46532-8.94213-9.74539-8.94213" fill-rule="nonzero" fill="#b11e37"/>
 <path d="m32.5005,17.0888c-1.73266-1.55342-3.96985-2.89441-6.79788-2.89441-3.7375,0-7.24929,2.47618-7.84012,5.5963-0.59083,3.14667,2.14425,5.58302,5.88839,5.58302,2.86785,0,5.37723-1.02897,7.70072-2.66206l-2.41643,10.7146c-2.14426,0.79663-6.88418,1.14847-9.12137,1.14847-9.7985,0-16.2313-6.35309-14.6845-14.5185,1.5534-8.3646,10.7213-15.0562,20.7986-15.0562,2.82139,0,5.69588,0.41823,8.15878,1.18166l-1.68619,10.9071z" fill-rule="nonzero" fill="#b11e37"/>
 <path d="m31.4975,34.1148,15.8197,0c10.084,0,18.2892-5.39714,19.9289-13.9078,2.01149-10.5221-6.06099-14.7442-17.5988-14.7442h-12.7261l-5.4237,28.652zm16.2313-19.6833,0.78334,0c4.55405,0,7.01695,1.71274,6.24024,5.73571-0.73024,3.75741-4.19556,5.36394-8.34466,5.36394h-0.77007l2.09115-11.0996z" fill-rule="nonzero" fill="#b11e37"/>
 <path d="m155.793,27.8658c-7.45509,0-12.7659-3.91011-11.5312-10.4491,1.23477-6.39956,8.09239-10.5553,15.5209-10.5553,1.33435,0,2.59567,0.13941,3.7707,0.40495-2.64215-1.29452-5.90168-1.99821-9.51969-1.99821-10.4424,0-20.1082,5.85521-21.8408,14.8637-1.73266,9.19439,5.74899,14.7044,16.2379,14.7044,10.2632,0,19.6302-5.29093,21.6483-14.1268-2.52929,4.53413-8.19197,7.15636-14.2862,7.15636" fill-rule="nonzero" fill="#e30613"/>
 <path d="m66.8355,34.1148,12.0357,0,1.63972-8.62348,6.38629,0c6.97712,0,12.0423-3.64456,13.1842-9.5064,1.321-7.10325-3.9761-10.5221-11.9955-10.5221h-15.8263l-5.4237,28.652zm16.0056-20.8251,1.1883,0c2.05131,0,4.56068,0.11285,4.14909,2.36332-0.45806,2.31022-2.87449,2.61559-5.06521,2.61559h-1.22814l0.95596-4.97891z" fill-rule="nonzero" fill="#e30613"/>
 <path d="m98.6055,34.1148,12.2216,0,1.73266-9.20103,3.96986,9.20103,14.4056,0-7.42854-11.2523c4.87934-1.28788,7.2493-3.11348,8.07248-7.43518,1.36754-7.22938-4.70009-9.96446-12.4539-9.96446h-15.0961l-5.4237,28.652zm16.1914-20.8251,0.95596,0c2.13761,0,3.96321,0.26554,3.51179,2.46954-0.36512,2.13097-2.4629,2.39651-4.52085,2.39651h-0.85638l0.90948-4.86605z" fill-rule="nonzero" fill="#e30613"/>
 <path d="m193.725,5.46278-3.6512,19.2983c-1.08873,5.70251-6.69166,9.81177-13.5891,9.81177-3.55162,0-7.24929-1.29451-9.65909-3.12011l5.92159-8.85583c0.37176,1.37418,0.78335,3.00062,2.74172,3.00062,2.00484,0,2.55584-1.89862,2.78155-3.10684l3.23298-17.0279h12.2216z" fill-rule="nonzero" fill="#e30613"/>
 <path d="m196.869,5.46278,23.1221,0-1.46048,7.82685-10.5354,0-0.54436,2.73508,9.6259,0-1.42065,7.44846-9.61926,0-0.49789,2.81474,10.8939,0-1.50695,7.82685-23.4739,0,5.41706-28.652z" fill-rule="nonzero" fill="#e30613"/>
 <path d="m256.883,5.46278-1.71938,0-11.9162,0-10.3495,12.4274,2.59567-12.4274-12.1751,0-5.4237,28.652,12.1751,0,2.00485-12.0091,6.02116,12.0091,14.4986,0-9.12137-14.7044,11.2789-11.7303-1.43393,7.3024,6.83771,0-3.53835,19.1323,12.5004,0,3.62465-19.1323,6.8377,0,1.84552-9.51968-24.5427,0z" fill-rule="nonzero" fill="#e30613"/>
 <path fill-rule="nonzero" fill="#b11e37" d="m291.228,13.3408,0-3.7707c0-2.38987-1.37418-4.10262-3.55162-4.10262-2.68862,0-3.76406,2.11106-3.76406,4.85942v3.02054l7.31568-0.007zm-5.03202-2.96743,0-0.18588c0-1.08872,0.44478-1.74594,1.47376-1.74594,0.95595,0.007,1.36754,0.75679,1.36754,1.7393v0.19252h-2.8413zm-2.28098,13.0524,0-5.49672,1.9982-0.0133,0,2.50938,0.69705,0.0133,0-2.29694,1.89863,0,0,2.2903,0.71696-0.007,0-2.59568,2.00484,0,0,5.58966-7.31568,0.007zm7.313,10.647,0-2.91432-2.35005,0.007,0-0.0531,2.35005-1.3078,0-3.43213-2.3766,1.77913c-0.21907,0.17261-0.33193,0.35848-0.43815,0.50453h-0.0531c-0.33193-1.10864-0.80327-1.58661-1.90527-1.57997-1.83888,0-2.54256,1.57333-2.54256,3.41221v3.59146l7.31568-0.007zm-5.31748-2.91432,0-0.22571c0-0.50453,0.073-0.94932,0.63066-0.94932,0.54436-0.007,0.61075,0.47798,0.61075,0.96923v0.2058h-1.24141z"/>
 <path fill-rule="nonzero" fill="#e30613" d="m275.639,33.2298-0.51781-1.22813c0.15933-0.0465,0.23235-0.0929,0.30538-0.19252,0.11949-0.11286,0.18588-0.30537,0.18588-0.48461,0-0.22571-0.10622-0.45143-0.27882-0.5842-0.13941-0.0996-0.33193-0.15268-0.55764-0.15268h-1.03562v2.64214h0.31202v-1.14183h0.75015l0.49126,1.14183h0.3452zm-1.58661-1.42065,0-0.93604,0.7236,0c0.31201,0,0.50453,0.17261,0.50453,0.44479,0,0.13941-0.0465,0.26554-0.13277,0.35184-0.0996,0.0996-0.22571,0.13941-0.41159,0.13941h-0.68377zm-1.62439,0.09165c0.007,1.20158,0.96923,2.17081,2.16417,2.17081,1.20158,0,2.1708-0.96923,2.1708-2.17081s-0.96922-2.16417-2.1708-2.16417c-1.19494,0-2.15753,0.96259-2.16417,2.16417m-0.28546,0c0.007-1.35426,1.102-2.44963,2.44963-2.44963,1.35426,0,2.45626,1.09537,2.45626,2.44963,0,1.34763-1.102,2.44963-2.45626,2.44963-1.34763,0-2.44299-1.102-2.44963-2.44963"/>
</svg>
