<?xml version="1.0" encoding="UTF-8"?>
<svg id="FENWICK-logo" width="336px" height="51px" version="1.1" viewBox="0 0 336 51" xmlns="http://www.w3.org/2000/svg">
 <g fill="#2E96FF">
  <polygon id="K" points="288.59722 49.9545 300.54525 49.9545 300.54525 35.932688 307.40324 28.95525 321.6362 49.9545 336 49.9545 315.56326 20.670938 334.82562 1.0423125 320.3948 1.0423125 300.54525 21.6495 300.54525 1.0423125 288.59722 1.0423125"/>
  <path id="C" d="m261.04399 51c9.00889 0 16.387052-4.0449375 20.960109-10.241438l-9.209938-7.3025625c-3.264646 4.1055-7.244131 6.1295625-11.750171 6.1295625-7.901528 0-13.840438-6.3909375-13.840438-14.085562s5.93891-14.1525 13.840438-14.1525c4.50604 0 8.485525 2.020875 11.750171 6.1965l9.209938-7.30575c-4.573057-6.1965-11.951219-10.23825-20.960109-10.23825-14.430819 0-25.922499 11.478188-25.922499 25.5s11.49168 25.5 25.922499 25.5z"/>
  <polygon id="I" points="215.66446 49.9545 227.61249 49.9545 227.61249 1.0423125 215.66446 1.0423125"/>
  <polygon id="W" points="154.28721 50.282812 166.62776 50.282812 176.03237 20.737875 185.49761 50.282812 197.90517 50.282812 209.91703 1.0423125 198.03602 1.0423125 190.91634 31.30125 181.25325 1.0423125 171.06998 1.0423125 161.47071 31.170562 154.35423 1.0423125 142.20834 1.0423125"/>
  <polygon id="N" points="90.235696 49.9545 101.85822 49.9545 101.85822 20.020688 125.10326 49.9545 136.4641 49.9545 136.4641 1.0423125 124.84158 1.0423125 124.84158 30.781688 102.1199 1.0423125 90.235696 1.0423125"/>
  <polygon id="E" points="44.138135 49.9545 82.401185 49.9545 82.401185 38.801438 56.086164 38.801438 56.086164 30.584062 77.177114 30.584062 77.177114 19.695562 56.086164 19.695562 56.086164 12.195375 82.401185 12.195375 82.401185 1.0423125 44.138135 1.0423125"/>
  <polygon id="F" points="0 49.9545 11.948028 49.9545 11.948028 33.194625 33.364486 33.194625 33.364486 22.302938 11.948028 22.302938 11.948028 12.195375 37.937543 12.195375 37.937543 1.0423125 0 1.0423125"/>
 </g>
</svg>
