<?xml version="1.0" encoding="utf-8"?>
<!-- Generator: Adobe Illustrator 14.0.0, SVG Export Plug-In  -->
<!DOCTYPE svg PUBLIC "-//W3C//DTD SVG 1.1 Tiny//EN" "http://www.w3.org/Graphics/SVG/1.1/DTD/svg11-tiny.dtd" [
	<!ENTITY ns_flows "http://ns.adobe.com/Flows/1.0/">
]>
<svg version="1.1" baseProfile="tiny"
	 xmlns="http://www.w3.org/2000/svg" xmlns:xlink="http://www.w3.org/1999/xlink" xmlns:a="http://ns.adobe.com/AdobeSVGViewerExtensions/3.0/"
	 x="0px" y="0px" width="709px" height="392px" viewBox="-14.9213867 -15.293457 709 392" xml:space="preserve">
<defs>
</defs>
<path d="M383.9145508,184.2915039c0.1933594-0.96875,0.1933594-1.9350586,0.1933594-2.7128906v-10.1123047
	c0-0.9682617-0.4082031-1.918457-1.3251953-2.5053711l4.4345703-1.5117188v14.1293945c0,0.777832,0,1.7441406,0.1933594,2.7128906
	H383.9145508"/>
<path d="M396.5356445,184.2915039l7.0400391-14.5107422h-5.0771484c-0.7822266,0-1.328125,0.0791016-1.765625,0.2514648v-2.1958008
	h10.9023438l-7.6298828,16.4550781H396.5356445z"/>
<path d="M417.9038086,184.6860352c-1.2285156,0-2.5273438-0.1782227-3.6484375-0.6987305l0.0556641-1.3886719
	c1.0058594,0.371582,2.1855469,0.6494141,3.5439453,0.4838867c1.9628906-0.234375,3.5107422-1.8173828,3.5107422-3.9121094
	c0-2.3574219-1.5107422-3.6376953-3.8369141-3.6376953c-0.9833984,0-1.9072266,0.1689453-2.7763672,0.5083008l0.5908203-8.2045898
	h8.5644531v2.1640625c-0.4306641-0.1118164-0.9873047-0.2231445-1.7734375-0.2231445h-4.1416016l-0.2412109,4.1689453
	c0.6533203-0.0898438,1.2207031-0.1577148,2.0449219-0.121582c2.9716797,0.1577148,4.8242188,2.1606445,4.8242188,4.953125
	C424.6206055,182.0703125,422.0668945,184.6860352,417.9038086,184.6860352"/>
<path d="M444.0874023,174.2783203c-0.1699219-4.4091797-2.4599609-7.0766602-6.6308594-6.7119141
	c-3.1542969,0.2719727-5.2324219,2.9482422-4.9580078,6.1376953c0.2490234,2.9770508,2.3046875,4.6333008,5.6328125,4.2993164
	c1.2470703-0.1298828,2.4121094-0.7885742,2.8134766-1.4545898c-0.078125,4.2758789-2.5751953,6.8623047-7.0136719,6.6992188
	l-0.0263672,1.3383789C439.5493164,185.3017578,444.3735352,181.9599609,444.0874023,174.2783203z M438.0385742,176.4111328
	c-1.7587891,0-2.3447266-1.5463867-2.3339844-3.6699219c0.0039063-1.1650391,0.2080078-3.8740234,2.3603516-3.8740234
	c1.9589844,0,2.3457031,2.5166016,2.3417969,3.675293C440.4067383,173.5092773,440.3920898,176.4111328,438.0385742,176.4111328z"/>
<path fill="#BE9E55" d="M342.4008789,193.5927734h-33.7094727l-39.949707-133.7734375
	c-0.3916016-1.3535156-1.1748047-3.8706055-1.1748047-5.0341797c0-1.5473633,1.1748047-2.515625,2.7407227-2.515625
	c1.1743164,0,2.1557617,0.5805664,2.5473633,1.7402344l42.8911133,129.5180664
	c45.8442383-36.5908203,70.324707-81.8935547,66.0161133-137.8417969
	c6.2646484-1.3554688,14.2949219-4.2626953,18.9892578-6.9697266
	C411.5239258,98.3417969,391.3549805,152.9370117,342.4008789,193.5927734"/>
<path d="M223.1137695,184.3027344c0.1948242-0.9707031,0.1948242-1.940918,0.1948242-2.7089844v-11.4262695
	c0-0.9663086,0-1.3569336-0.1948242-2.3217773h9.2050781l-0.0019531,2.1289063
	c-0.5048828-0.1113281-1.2490234-0.1938477-2.0317383-0.1938477l-3.644043,0.0039063v5.0307617h2.7382813
	c0.3916016,0,1.105957-0.0200195,1.7626953-0.1464844v2.2265625c-0.6269531-0.1318359-1.3710938-0.1484375-1.7626953-0.1484375
	h-2.7382813v5.6147461h4.3061523c0.7832031,0,1.2099609-0.1259766,1.7646484-0.2680664v2.2089844H223.1137695"/>
<path d="M243.4794922,184.6894531c-1.777832,0-3.3955078-0.5576172-4.3085938-1.2875977v-1.621582
	c1.2172852,0.8105469,2.5380859,1.3359375,4.3139648,1.2236328c1.5068359-0.0991211,2.7758789-0.9985352,2.8520508-2.4667969
	c0.0722656-1.4750977-0.8613281-2.2358398-2.8574219-3.2045898c-3.1191406-1.4204102-4.3476563-2.5625-4.3085938-5.0336914
	c0.0410156-2.605957,2.0688477-4.7651367,5.2880859-4.8417969c1.4433594-0.0317383,2.8647461,0.2475586,3.8520508,0.8164063
	l-0.0112305,1.7363281c-0.8349609-0.5385742-1.9316406-0.9702148-3.2563477-0.9702148
	c-1.7294922,0-2.9707031,0.8842773-3.0986328,2.1831055c-0.0595703,0.6176758,0.1445313,1.2543945,0.6938477,1.7915039
	c0.4731445,0.4702148,1.2285156,0.8364258,2.4086914,1.4111328c3.081543,1.3256836,4.3061523,2.7124023,4.3061523,5.2294922
	C249.3535156,182.1669922,247.5927734,184.6894531,243.4794922,184.6894531"/>
<path d="M265.0214844,169.9746094h-2.7387695V181.59375c0,0.7680664,0,1.7382813,0.1928711,2.7089844h-3.7182617
	c0.1928711-0.9707031,0.1928711-1.940918,0.1928711-2.7089844v-11.6225586l-2.7407227,0.003418
	c-0.5844727,0-1.1782227,0-1.7626953,0.1928711v-2.3217773h12.3354492v2.3217773
	C266.1958008,169.9746094,265.6074219,169.9746094,265.0214844,169.9746094"/>
<path d="M278.9262695,184.3027344H276.96875c-0.3916016,0-0.862793,0-1.1762695,0.1298828v-2.0102539
	c0.3134766,0.1083984,0.784668,0.1323242,1.1762695,0.1323242h1.9575195c0.3916016,0,0.7905273-0.0483398,1.1723633-0.1323242
	l0.0019531,2.0268555C279.8056641,184.3212891,279.3178711,184.3027344,278.9262695,184.3027344"/>
<path d="M278.3378906,179.2641602h-4.8984375c0.1967773-0.3823242,0.1967773-0.7729492,0.1967773-0.9667969l0.0019531-9.4868164
	c-0.0019531-0.1894531-0.0019531-0.5800781-0.1948242-0.9648438H277.75c3.9165039,0,6.2675781,1.3554688,6.2675781,5.4199219
	C284.0175781,176.7470703,281.668457,179.2641602,278.3378906,179.2641602 M277.9462891,169.3271484h-1.5678711v8.4174805
	l1.1782227-0.0009766c2.1542969,0,3.5239258-1.230957,3.5239258-4.5146484
	C281.0805664,170.5639648,279.7109375,169.3271484,277.9462891,169.3271484"/>
<polyline fill="#BE9E55" points="411.7211914,42.1987305 411.7211914,49.9453125 409.9624023,49.9453125 409.9624023,42.1987305 
	407.612793,42.1987305 407.612793,40.6533203 414.0698242,40.6533203 414.0698242,42.1987305 411.7211914,42.1987305 "/>
<polyline fill="#BE9E55" points="422.1000977,49.9453125 422.1000977,42.5893555 421.9077148,42.5893555 419.9477539,49.9453125 
	418.7719727,49.9453125 416.8120117,42.5893555 416.8120117,49.9453125 415.246582,49.9453125 415.246582,40.6533203 
	417.5952148,40.6533203 419.3579102,47.2329102 421.1245117,40.6533203 423.4731445,40.6533203 423.4731445,49.9453125 
	422.1000977,49.9453125 "/>
<path fill="#BE9E55" d="M400.9555664,0c-18.0205078,13.9335938-46.0195313,19.5498047-79.7319336,6.9672852
	C308.1035156,2.1264648,296.5493164,0,286.9511719,0c-25.262207,0-38.1855469,14.1274414-38.1855469,29.0380859
	c0,12.1938477,8.4238281,20.5205078,19.3916016,20.5205078c2.543457,0,5.0913086-0.5834961,7.2416992-1.5541992
	l45.2402344,123.1279297c3.5253906-2.3217773,18.8227539-17.421875,23.5205078-24.1953125
	c-2.5458984-0.3896484-4.8945313-2.3256836-6.2675781-5.418457c0,0-48-104.1655273-50.7519531-110.4462891
	c-2.9702148-6.7822266-5.4345703-11.5390625-9.3847656-13.6376953c4.7275391-1.6538086,12.5170898-1.3515625,19.0576172,1.2636719
	c6.2304688,2.4946289,16.6621094,9.1171875,29.7578125,14.8447266c13.8779297,6.0629883,23.8232422,8.7958984,34.8339844,9.340332
	c18.5546875,0.9169922,39.0458984-6.8085938,49.7294922-16.7480469L400.9555664,0z M267.5668945,38.7163086
	c-3.918457,0-7.2456055-3.2910156-7.2456055-7.1616211c0-3.8740234,3.3271484-7.1645508,7.2456055-7.1645508
	c3.9150391-0.0019531,7.2456055,3.2905273,7.2456055,7.1645508C274.8125,35.425293,271.4819336,38.7163086,267.5668945,38.7163086z"
	/>
<path fill="#BE9E55" d="M351.0249023,85.7402344c11.7373047-25.9560547,23.5537109-42.8569336,24.1503906-43.6352539
	c-0.2041016,0.9511719-5.2841797,20.8798828-17.3115234,46.7021484
	c-11.7373047,25.9570313-23.5678711,42.8579102-24.1650391,43.640625
	C333.902832,131.4868164,338.9941406,111.5654297,351.0249023,85.7402344z"/>
<path fill="#BE9E55" d="M340.5493164,78.5258789c9.6113281-21.2783203,19.5039063-35.050293,20.0048828-35.6870117
	c-0.1513672,0.7866211-4.1191406,17.21875-13.9902344,38.3803711c-9.6108398,21.28125-19.5234375,35.0527344-20.0244141,35.6889648
	C326.6933594,116.1196289,330.6640625,99.6870117,340.5493164,78.5258789z"/>
<path fill="#BE9E55" d="M331.4692383,70.6376953c7.9960938-17.6699219,16.2568359-29.0678711,16.671875-29.5957031
	c-0.1220703,0.6547852-3.3544922,14.3066406-11.5629883,31.8823242
	c-7.9921875,17.6699219-16.2451172,29.0605469-16.6704102,29.5883789
	C320.0375977,101.8569336,323.2719727,88.2114258,331.4692383,70.6376953z"/>
<path fill="#BE9E55" d="M323.4516602,62.5942383c6.6762695-14.7695313,13.6088867-24.2929688,13.9614258-24.7353516
	c-0.1074219,0.5527344-2.7978516,11.9780273-9.6621094,26.6630859
	c-6.6650391,14.7675781-13.5913086,24.2944336-13.9418945,24.7333984
	C313.9145508,88.7060547,316.6035156,77.284668,323.4516602,62.5942383z"/>
<path fill="#BE9E55" d="M316.1225586,54.6591797c5.5556641-12.3100586,11.3725586-20.2226563,11.6655273-20.5908203
	c-0.0834961,0.4599609-2.2783203,9.9980469-7.9916992,22.2431641
	c-5.5532227,12.3100586-11.3740234,20.2246094-11.6630859,20.5883789
	C308.2148438,76.4443359,310.409668,66.8989258,316.1225586,54.6591797z"/>
<path fill="#BE9E55" d="M309.4599609,47.1054688c4.5751953-10.1425781,9.3530273-16.6748047,9.5942383-16.980957
	c-0.0703125,0.3828125-1.8959961,8.2373047-6.6069336,18.315918c-4.5737305,10.1479492-9.3461914,16.6826172-9.5947266,16.9804688
	C302.9248047,65.0444336,304.7543945,57.1879883,309.4599609,47.1054688z"/>
<path fill="#BE9E55" d="M303.2255859,39.7338867c3.7236328-8.2504883,7.6665039-13.5419922,7.8671875-13.7827148
	c-0.0556641,0.3100586-1.4829102,6.7299805-5.3105469,14.9291992c-3.722168,8.2524414-7.6669922,13.5424805-7.8652344,13.7807617
	C297.96875,54.3530273,299.3955078,47.9331055,303.2255859,39.7338867z"/>
<path fill="#BE9E55" d="M303.5908203,21.9619141c-0.0371094,0.2460938-1.0947266,5.3061523-4.105957,11.7426758
	c-2.9150391,6.4780273-6.074707,10.6000977-6.234375,10.7895508c0.0390625-0.2441406,1.0947266-5.3085938,4.1079102-11.7431641
	C300.2714844,26.2744141,303.4331055,22.1503906,303.5908203,21.9619141z"/>
<path d="M671.6206055,228.1625977c-3.7783203,0-6.8505859,3.0419922-6.8505859,6.7275391
	c0,3.7685547,3.0722656,6.7802734,6.8505859,6.7802734c3.7734375,0,6.8242188-3.0117188,6.8242188-6.7802734
	C678.4448242,231.2045898,675.394043,228.1625977,671.6206055,228.1625977 M671.6206055,240.355957
	c-3.0957031,0-5.5517578-2.4042969-5.5517578-5.4658203c0-2.9892578,2.4560547-5.4003906,5.5517578-5.4003906
	c3.0498047,0,5.5214844,2.4111328,5.5214844,5.4003906C677.1420898,237.9516602,674.6704102,240.355957,671.6206055,240.355957"/>
<path d="M674.7749023,233.2514648c0-0.5839844-0.2529297-1.1923828-0.7685547-1.4931641
	c-0.5302734-0.2783203-1.1132813-0.3193359-1.6845703-0.3193359h-3.0058594v6.8242188h1.0166016v-3.1259766h1.2099609
	l1.9736328,3.1259766h1.1660156l-2.0820313-3.1259766C673.8168945,235.0864258,674.7749023,234.5854492,674.7749023,233.2514648
	 M671.456543,234.2700195h-1.1240234v-2.0537109h1.7890625c0.8535156,0,1.6171875,0.1171875,1.6171875,1.0126953
	C673.7387695,234.4487305,672.4213867,234.2700195,671.456543,234.2700195"/>
<path d="M626.2875977,346.1831055c-15.7197266,0-24.8632813-4.8857422-29.8027344-4.8857422v-25.3027344h2.5605469
	c2.1933594,11.0234375,13.7119141,18.6210938,25.9658203,18.6210938c10.4238281,0,18.6542969-5.4287109,18.6542969-16.2705078
	c0-7.4101563-3.6591797-13.9179688-13.1660156-20.4287109l-13.3486328-9.0361328
	c-11.5224609-7.7705078-21.2119141-16.6318359-21.2119141-32.5390625c0-18.7978516,12.7958984-30.9130859,34.0039063-30.9130859
	c12.6240234,0,17.9199219,2.8994141,25.2382813,3.6181641v21.8671875h-2.5605469
	c-1.6513672-8.3125-10.4169922-14.9921875-22.1210938-14.9921875c-10.9804688,0-15.9091797,5.9658203-15.9091797,13.9130859
	c0,6.8681641,4.2050781,12.2919922,14.4433594,19.1630859l11.5224609,7.5888672
	c17.734375,11.7558594,23.21875,20.2431641,23.21875,34.8876953
	C663.7749023,332.9829102,648.5942383,346.1831055,626.2875977,346.1831055z M551.137207,346.1831055
	c-15.7304688,0-24.8671875-4.8857422-29.8066406-4.8857422v-25.3027344h2.5644531
	c2.1933594,11.0234375,13.7158203,18.6210938,25.9580078,18.6210938c10.4316406,0,18.6552734-5.4287109,18.6552734-16.2705078
	c0-7.4101563-3.6552734-13.9179688-13.1630859-20.4287109l-13.3515625-9.0361328
	c-11.5185547-7.7705078-21.2080078-16.6318359-21.2080078-32.5390625c0-18.7978516,12.7988281-30.9130859,34.0107422-30.9130859
	c12.6171875,0,17.9199219,2.8994141,25.234375,3.6181641v21.8671875h-2.5605469
	c-1.6474609-8.3125-10.4238281-14.9921875-22.125-14.9921875c-10.9726563,0-15.9082031,5.9658203-15.9082031,13.9130859
	c0,6.8681641,4.2001953,12.2919922,14.4423828,19.1630859l11.5224609,7.5888672
	c17.734375,11.7558594,23.2197266,20.2431641,23.2197266,34.8876953
	C588.621582,332.9829102,573.4477539,346.1831055,551.137207,346.1831055 M448.737793,344.3735352v-2.3486328
	c0.9160156-0.8984375,1.1015625-5.5996094,1.1015625-8.1308594V241.699707c0-7.5849609-2.5634766-11.5683594-5.3066406-12.1103516
	v-2.3496094h64.1806641v15.9052734h-2.375c-0.5488281-2.7109375-6.0302734-4.5126953-9.5068359-4.5126953h-24.3183594v40.1230469
	h20.4736328c2.7460938,0,9.1474609-0.7177734,9.8789063-2.53125h2.3779297v15.1875h-2.3779297
	c-0.9208984-0.9023438-6.0341797-1.265625-9.1445313-1.265625h-21.2080078v42.8369141h24.1328125
	c6.5869141,0,10.609375-2.5302734,11.34375-5.4179688h2.375v16.8085938H448.737793z M415.0942383,344.3735352
	l-60.5146484-105.7412109c-2.0224609-3.6230469-5.8554688-8.5009766-9.3291016-9.0429688v-2.3496094h29.25l42.2373047,74.8330078
	V241.699707c0-7.5849609-2.0107422-11.5683594-4.5712891-12.1103516v-2.3496094h17.3740234v117.1337891H415.0942383z
	 M352.1977539,344.3735352v-2.3486328c0.9130859-0.8984375,1.0947266-7.7724609,1.0947266-9.0419922v-80.7958984
	l12.8027344,23.3154297v56.9404297c0,4.5244141,0.9091797,9.0361328,1.8251953,9.5820313v2.3486328H352.1977539z
	 M318.8950195,344.3735352l-60.5253906-105.7412109c-2.0097656-3.6230469-5.8505859-8.5009766-9.3276367-9.0429688v-2.3496094
	h29.2587891l42.2397461,74.8330078V241.699707c0-7.5849609-2.0112305-11.5683594-4.5717773-12.1103516v-2.3496094h17.3774414
	v117.1337891H318.8950195z M255.9926758,344.3735352v-2.3486328c0.9145508-0.8984375,1.0966797-7.7724609,1.0966797-9.0419922
	v-80.7958984l12.8007813,23.3154297v56.9404297c0,4.5244141,0.9125977,9.0361328,1.8295898,9.5820313v2.3486328H255.9926758z
	 M213.387207,344.3735352v-2.3486328c0.730957-0.5458984,1.2802734-5.5996094,1.2802734-8.6748047V241.699707
	c0-7.5849609-2.5585938-11.5683594-5.3027344-12.1103516v-2.3496094h27.7929688v104.1181641
	c0,6.6962891,1.2783203,10.4892578,2.0112305,10.6669922v2.3486328H213.387207z M192.9101563,324.1303711
	c-4.3896484,14.6376953-16.2758789,22.0527344-35.4726563,22.0527344c-27.7949219,0-39.5009766-15.3613281-39.5009766-38.8652344
	V241.699707c0-7.5849609-2.5585938-11.5683594-5.2973633-12.1103516v-2.3496094h28.1586914v80.6220703
	c0,7.7675781,0.9106445,11.9267578,2.5585938,15.1875c3.6572266,7.0429688,10.2382813,9.2119141,17.3691406,9.2119141
	c7.4995117,0,14.628418-2.1689453,18.2856445-9.2119141c1.6455078-3.2607422,2.5620117-7.4199219,2.5620117-16.0927734V241.699707
	c0-7.5849609-2.5620117-11.5683594-5.3046875-12.1103516v-2.3496094h18.8369141v78.0878906
	C195.1054688,314.5415039,194.3725586,319.6069336,192.9101563,324.1303711z M99.6542969,287.074707v53.6806641
	c-1.2802734,0.5419922-17.3725586,5.7861328-38.5854492,5.7861328C27.9765625,346.5415039,0,322.8657227,0,273.3374023
	c0-42.8457031,24.5014648-71.2260742,59.9741211-71.2260742c17.3720703,0,25.6010742,4.3422852,30.7202148,4.3422852
	c0.7275391,0,1.0966797-0.1806641,1.2802734-0.3642578h1.8256836v29.1015625h-2.9238281
	c-3.4736328-14.8212891-14.9941406-21.3300781-27.793457-21.3300781c-20.8442383,0-37.8525391,17.1708984-37.8525391,58.5693359
	c0,44.2822266,18.8349609,61.8222656,38.5830078,61.8222656c5.6708984,0,9.6899414-0.7255859,12.2543945-1.8095703v-42.296875
	c0-6.1494141-1.6479492-13.921875-8.4125977-15.3632813v-2.5341797h33.277832v2.3544922
	C100.0200195,275.1352539,99.6542969,283.4555664,99.6542969,287.074707z"/>
</svg>
