<?xml version="1.0" encoding="UTF-8" standalone="no"?>
<!-- Created with Inkscape (http://www.inkscape.org/) -->

<svg
   xmlns:dc="http://purl.org/dc/elements/1.1/"
   xmlns:cc="http://creativecommons.org/ns#"
   xmlns:rdf="http://www.w3.org/1999/02/22-rdf-syntax-ns#"
   xmlns:svg="http://www.w3.org/2000/svg"
   xmlns="http://www.w3.org/2000/svg"
   xmlns:sodipodi="http://sodipodi.sourceforge.net/DTD/sodipodi-0.dtd"
   xmlns:inkscape="http://www.inkscape.org/namespaces/inkscape"
   width="260.00009"
   height="55.760799"
   viewBox="0 0 68.791689 14.753379"
   version="1.1"
   id="svg8400"
   inkscape:version="0.92.1 r15371"
   sodipodi:docname="RAYS company logo.svg">
  <defs
     id="defs8394" />
  <sodipodi:namedview
     id="base"
     pagecolor="#ffffff"
     bordercolor="#666666"
     borderopacity="1.0"
     inkscape:pageopacity="0.0"
     inkscape:pageshadow="2"
     inkscape:zoom="1"
     inkscape:cx="103.47764"
     inkscape:cy="-145.30507"
     inkscape:document-units="px"
     inkscape:current-layer="layer1"
     showgrid="false"
     units="px"
     fit-margin-top="5"
     fit-margin-bottom="5"
     fit-margin-right="5"
     fit-margin-left="5"
     inkscape:window-width="1280"
     inkscape:window-height="972"
     inkscape:window-x="-8"
     inkscape:window-y="-8"
     inkscape:window-maximized="1" />
  <metadata
     id="metadata8397">
    <rdf:RDF>
      <cc:Work
         rdf:about="">
        <dc:format>image/svg+xml</dc:format>
        <dc:type
           rdf:resource="http://purl.org/dc/dcmitype/StillImage" />
        <dc:title></dc:title>
      </cc:Work>
    </rdf:RDF>
  </metadata>
  <g
     inkscape:label="Layer 1"
     inkscape:groupmode="layer"
     id="layer1"
     transform="translate(-78.454875,-95.634648)">
    <path
       inkscape:connector-curvature="0"
       style="fill:#000000;fill-opacity:1;fill-rule:nonzero;stroke:none;stroke-width:0.52377009"
       d="m 142.4966,101.25821 -9.57517,-0.27826 c -0.23528,0 -0.47058,0.0983 -0.59538,0.30485 -0.12071,0.20461 0.0226,0.36419 0.20461,0.38056 l 6.42641,0.61788 c 2.26489,0.21892 2.59838,1.40968 1.87002,2.61067 -0.82862,1.37081 -2.40607,2.04188 -3.97124,2.03985 h -10.6084 l 1.30739,-2.16875 9.57721,0.28031 c 0.23119,0 0.46649,-0.10022 0.59129,-0.3069 0.1268,-0.2046 -0.0226,-0.36419 -0.2005,-0.37851 l -6.42847,-0.61993 c -2.26488,-0.21483 -2.60044,-1.41173 -1.87001,-2.61067 0.82861,-1.372843 2.40606,-2.039831 3.96714,-2.039831 h 10.61044 z m -22.74512,4.23926 -0.86545,1.43219 h -3.50271 l 1.11506,-1.84957 -3.87713,-5.990611 h 2.80707 l 3.01782,4.664821 7.97727,-4.664821 h 4.29246 z m -14.93768,1.43629 v -0.006 l -0.47262,-2.01324 5.65099,-0.14936 -0.99025,-4.23926 -8.9798,6.40799 -5.391148,10e-4 -4.353839,-4.1431 0.29462,-0.49104 0.004,-0.004 4.155378,-0.14935 c 0.33554,0 0.822484,-0.12278 1.110966,-0.4583 0.286436,-0.33146 0.08798,-0.54628 -0.247562,-0.54628 h -6.72921 l -3.457702,5.79217 -3.506804,-0.001 4.722115,-7.844274 h 10.770024 c 1.583585,0 2.696592,1.151894 1.589725,2.764114 -1.239864,1.80865 -2.897105,2.30174 -3.676622,2.30174 l 1.925265,1.82909 9.665194,-6.894944 h 4.74463 l 1.83319,7.844274 z m 40.83771,-8.891828 c -0.37646,-0.669036 -1.08233,-1.082318 -1.84957,-1.084367 l -10.61044,0.0015 c -0.55855,0 -1.10483,0.0634 -1.6286,0.178001 -0.25983,-0.116697 -0.54832,-0.178001 -0.84703,-0.178001 h -4.29246 c -0.37646,0 -0.74473,0.100218 -1.06799,0.290527 0,0 -4.0981,2.391752 -6.23001,3.641848 -0.88796,-1.374915 -1.91708,-2.962582 -1.91708,-2.962582 -0.39079,-0.603561 -1.06186,-0.969793 -1.78001,-0.969793 h -2.80707 c -0.16777,0 -0.33146,0.02049 -0.49103,0.05939 -0.15959,-0.0389 -0.32123,-0.05939 -0.48899,-0.05939 h -4.74667 c -0.43784,0 -0.86954,0.137039 -1.22759,0.394872 l -4.13083,2.944173 c -0.0389,-0.443993 -0.16367,-0.879783 -0.37441,-1.282835 -0.67517,-1.288975 -2.08485,-2.05621 -3.768689,-2.05621 H 86.623017 c -0.746782,0 -1.43423,0.390774 -1.818874,1.029122 l -4.720069,7.842233 c -0.552414,0.92069 -0.360092,2.15237 0.597426,2.85413 0.36623,0.26599 0.822482,0.38056 1.274644,0.38056 h 3.451562 c 0.748829,0 1.440368,-0.39487 1.825011,-1.0414 0,0 1.008667,-1.68998 1.976416,-3.31244 0.652666,0.62198 3.958964,3.76459 3.958964,3.76459 0.394875,0.37646 0.918645,0.58925 1.460829,0.58925 h 5.391154 c 0.44397,-0.004 0.87363,-0.14119 1.23372,-0.39692 0,0 1.10073,-0.78769 1.54062,-1.09868 0.27621,0.87976 1.08641,1.4956 2.01938,1.49152 l 8.66062,0.004 c 0.3335,0 0.65881,-0.0839 0.95139,-0.22916 0.29052,0.1452 0.61787,0.22507 0.95751,0.22507 l 3.50271,0.004 c 0.74474,0 1.43424,-0.39282 1.82091,-1.03322 0,0 0.32532,-0.54422 0.58106,-0.96774 0.32123,-0.18822 1.88435,-1.09868 3.70527,-2.16464 l -0.56265,0.93092 c -0.20459,0.33963 -0.30485,0.72224 -0.30485,1.10278 0,0.36213 0.09,0.72223 0.27621,1.04755 0.37442,0.67107 1.08027,1.08436 1.84547,1.08027 0,0 10.6084,0.004 10.6084,0 2.46336,0.004 4.63004,-1.1437 5.78807,-3.06692 0.4317,-0.71201 0.64857,-1.45878 0.64857,-2.17487 0,-0.19846 -0.0205,-0.39487 -0.0552,-0.5872 0.43988,-0.16367 0.82658,-0.46035 1.07618,-0.87568 l 1.30738,-2.16873 c 0.20459,-0.333501 0.3028,-0.718143 0.3028,-1.098702 0,-0.360085 -0.086,-0.720184 -0.27211,-1.047532"
       id="path3016" />
  </g>
</svg>
