<?xml version="1.0" encoding="utf-8"?>
<!-- Generator: Adobe Illustrator 18.1.0, SVG Export Plug-In . SVG Version: 6.00 Build 0)  -->
<!DOCTYPE svg PUBLIC "-//W3C//DTD SVG 1.1//EN" "http://www.w3.org/Graphics/SVG/1.1/DTD/svg11.dtd">
<svg version="1.1" id="Layer_1" xmlns="http://www.w3.org/2000/svg" xmlns:xlink="http://www.w3.org/1999/xlink" x="0px" y="0px"
	 width="322.5px" height="107.5px" viewBox="0 0 322.5 107.5" enable-background="new 0 0 322.5 107.5" xml:space="preserve">
<g>
	<path d="M2.4,43.4C4,47,7.8,51.3,14.3,51.3c6.7,0,10.8-4.9,10.8-11c0-13.9-23.8-7.9-23.8-25.7c0-8.4,6.3-14.3,16.4-14.3
		c4.8,0,8.2,1.1,11.2,3.6c-0.9,1.7-1.4,3.5-2,6.3h-0.9c-1.1-2.8-3.3-7.1-9-7.1S7.2,7,7.2,12.5C7.2,26.7,31,20.8,31,37.5
		c0,9.2-6.9,17-18.5,17c-6.3,0-9.8-2.2-12.5-4.3c0.9-2.3,1.1-3.9,1.4-6.7H2.4z"/>
	<path d="M65.8,3.2C54,3.2,45,10.6,45,27.4c0,16.8,9.1,24.3,20.9,24.3c11.9,0,20.9-7.5,20.9-24.3C86.7,10.6,77.7,3.2,65.8,3.2
		 M65.8,0.4c16.7,0,28.3,9.9,28.3,27c0,14.1-7.9,23.3-19.9,26.1c5.4,4.3,11,8.7,17.1,13c-2.6,0.2-5.1,1.8-5.9,3.1
		C79.9,64.6,74.3,59.5,68,54.4c-0.8,0.1-1.4,0.1-2.2,0.1c-16.6,0-28.3-9.9-28.3-27C37.6,10.3,49.2,0.4,65.8,0.4"/>
	<path d="M143.6,1.4c1,0.2,2,0.4,3.1,0.4c0.8,0,1.6-0.1,2.3-0.4c-0.6,7-1.2,20.3-1.4,31.3c-0.2,13.4-7.9,21.8-21.5,21.8
		c-15,0-21.6-7-21.6-21.6c0-4.7,0.4-8.2,0.4-11.9c0-8.3-0.3-15.2-0.5-19.6c1.2,0.2,2.7,0.4,3.9,0.4c1.1,0,2.3-0.1,3.2-0.4
		c-0.5,4.5-0.9,14.7-0.9,25.9c0,10.3,0,23.6,16.8,23.6c16.5,0,16.5-15.5,16.5-25C144.1,11.5,144.1,4.3,143.6,1.4"/>
	<path d="M163.5,20.9c0-6.5-0.3-13.1-0.6-19.6c1.3,0.2,2.5,0.4,3.7,0.4c1.2,0,2.4-0.2,3.7-0.4c-0.3,6.5-0.6,13.1-0.6,19.6v13
		c0,6.5,0.3,13.1,0.6,19.6c-1.3-0.2-2.5-0.4-3.7-0.4c-1.2,0-2.4,0.2-3.7,0.4c0.3-6.5,0.6-13.1,0.6-19.6V20.9z"/>
	<path d="M190.7,25.2c1.4,0.3,3.1,0.4,5.1,0.4c6.2,0,14.4-2.6,14.4-11.6c0-7.9-6.6-9.9-11.7-9.9c-3.5,0-5.7,0.2-7.3,0.4
		c-0.2,5.5-0.5,10.9-0.5,16.4V25.2z M184.5,20.9c0-6.5-0.3-13.1-0.6-19.6c2.9,0.2,5.7,0.4,8.6,0.4c2.9,0,5.7-0.4,8.6-0.4
		c8.5,0,15.7,3,15.7,11.9c0,9.7-9.8,13.7-15.5,14.4c3.7,4.6,16.3,20.9,20.7,25.8c-1.5-0.2-3-0.4-4.5-0.4c-1.4,0-2.9,0.2-4.4,0.4
		c-3-4.6-13.1-18.5-19.6-25.1h-2.9v5.5c0,6.5,0.3,13.1,0.6,19.6c-1.3-0.2-2.5-0.4-3.7-0.4c-1.2,0-2.4,0.2-3.7,0.4
		c0.3-6.5,0.6-13.1,0.6-19.6V20.9z"/>
	<path d="M230.7,20.8c0-6.5-0.3-13.1-0.6-19.5c4.5,0.2,9,0.4,13.5,0.4c4.5,0,9-0.2,13.4-0.4c-0.1,0.8-0.2,1.5-0.2,2.3
		c0,0.8,0.1,1.5,0.2,2.3c-6.3-0.5-10.1-1-19.9-1c-0.1,3.2-0.3,5.9-0.3,9.6c0,3.9,0.1,8.1,0.1,10c8.9,0,13.9-0.4,18.4-0.8
		c-0.2,0.8-0.2,1.6-0.2,2.3c0,0.8,0.1,1.5,0.2,2.3c-5.2-0.5-14.7-0.7-18.4-0.7c-0.1,1.8-0.1,3.7-0.1,10.9c0,5.7,0.1,9.4,0.2,11.3
		c6.7,0,15.6-0.1,20.4-1c-0.2,0.7-0.2,1.7-0.2,2.3c0,0.7,0.1,1.5,0.2,2.2c-4.5-0.2-9-0.4-13.6-0.4c-4.6,0-9.1,0.2-13.8,0.4
		c0.3-6.6,0.6-13.1,0.6-19.6V20.8z"/>
	<path d="M3.9,91.5C4.8,91.7,6,91.9,7,91.9c3.6,0,8.1-1.3,8.1-7.3c0-5-2.8-6-7.3-6H3.9V91.5z M0.3,88.3c0-3.7-0.2-7.5-0.3-11.3
		c1.4,0.1,2.8,0.2,4.2,0.2c1.4,0,4.2-0.2,5.4-0.2c2.6,0,9.5,0.1,9.5,7.3c0,7.6-7.5,9.1-11.7,9.1c-1.3,0-2.4,0-3.5-0.1v2.4
		c0,3.7,0.2,7.5,0.3,11.2c-0.7-0.1-1.4-0.2-2.1-0.2c-0.7,0-1.4,0.1-2.1,0.2c0.2-3.7,0.3-7.5,0.3-11.2V88.3z"/>
	<path d="M31.6,82.3l-4.7,11c1.5,0,3.2,0.1,4.7,0.1c1.6,0,3.3,0,4.9-0.1L31.6,82.3z M33,76.4c4.3,10.1,10.8,25.9,13.1,30.5
		c-0.8-0.1-1.5-0.2-2.3-0.2c-0.8,0-1.5,0.1-2.3,0.2c-0.8-3-2.9-7.8-4.5-11.6c-1.9,0-3.8-0.1-5.7-0.1c-1.8,0-3.5,0-5.3,0.1
		c-1.8,4.5-3.5,8.9-4.2,11.6c-0.6-0.1-1.1-0.2-1.6-0.2c-0.5,0-1,0.1-1.6,0.2c4.6-10.2,9.2-20.3,13.6-30.5H33z"/>
	<path d="M53.9,88.3c0-3,0-6-0.1-9c-3,0-6.9,0.2-9.3,0.5c0.1-0.4,0.2-0.9,0.2-1.4c0-0.4-0.1-0.9-0.2-1.3c3.7,0.1,7.5,0.2,11.2,0.2
		c3.7,0,7.5-0.1,11.2-0.2c-0.1,0.5-0.2,0.9-0.2,1.4c0,0.4,0.1,0.9,0.2,1.3c-2.4-0.3-6.3-0.5-9.3-0.5c-0.1,3-0.1,6-0.1,9v7.5
		c0,3.7,0.2,7.5,0.3,11.2c-0.7-0.1-1.4-0.2-2.1-0.2c-0.7,0-1.4,0.1-2.1,0.2c0.2-3.7,0.3-7.5,0.3-11.2V88.3z"/>
	<path d="M78,88.3c0-3,0-6-0.1-9c-3,0-6.9,0.2-9.3,0.5c0.1-0.4,0.2-0.9,0.2-1.4c0-0.4-0.1-0.9-0.2-1.3c3.7,0.1,7.5,0.2,11.2,0.2
		c3.7,0,7.5-0.1,11.2-0.2c-0.1,0.5-0.2,0.9-0.2,1.4c0,0.4,0.1,0.9,0.2,1.3c-2.4-0.3-6.3-0.5-9.3-0.5c-0.1,3-0.1,6-0.1,9v7.5
		c0,3.7,0.2,7.5,0.3,11.2c-0.7-0.1-1.4-0.2-2.1-0.2c-0.7,0-1.4,0.1-2.1,0.2c0.2-3.7,0.3-7.5,0.3-11.2V88.3z"/>
	<path d="M108.4,78c-6.8,0-12,4.3-12,13.9c0,9.6,5.2,13.9,12,13.9c6.8,0,12-4.3,12-13.9C120.4,82.3,115.2,78,108.4,78 M108.4,76.4
		c9.6,0,16.3,5.7,16.3,15.6c0,9.9-6.7,15.5-16.3,15.5c-9.6,0-16.2-5.7-16.2-15.5C92.1,82.1,98.8,76.4,108.4,76.4"/>
	<path d="M155.2,107.5c-6.6-7.8-14.5-16.1-21.9-24c0,1.6-0.1,4.2-0.1,8.8c0,3.7,0.2,12.9,0.4,14.6c-0.5-0.1-1-0.2-1.5-0.2
		c-0.5,0-1,0.1-1.6,0.2c0.3-2,0.9-13.2,0.9-18.9c0-5.5,0-9.7-0.1-11.6h0.7c7.1,7.7,16.7,18.2,22,23.5c0-7.8,0-16.2-0.3-22.9
		c0.5,0.1,1,0.2,1.5,0.2c0.5,0,0.9-0.1,1.4-0.2c-0.3,2.6-0.7,11.2-0.7,14.5c0,4.4,0.1,14,0.1,16H155.2z"/>
	<path d="M180.2,96.4c0,2.9,0.2,5.9,0.3,8.8c1.1,0.1,2.7,0.2,4.3,0.2c3.7,0,7-2.6,7-7.3c0-4.9-3.8-6.1-9.6-6.1h-2V96.4z M182.5,90.3
		c4.1,0,8.3-1.4,8.3-6.3c0-4.7-3.8-5.5-7.1-5.5c-1.5,0-2.5,0.1-3.3,0.2c-0.1,2.7-0.3,5.5-0.3,8.2v3.3H182.5z M176.6,88.2
		c0-3.7-0.2-7.5-0.3-11.2c1.5,0.1,3.1,0.2,4.6,0.2c1.5,0,3.1-0.2,4.6-0.2c5,0,9.2,1.3,9.2,6.3c0,4.3-3,6.6-7.3,7.6v0.1
		c5.2,0.3,8.3,2.3,8.3,7.3c0,6.4-6,8.7-11,8.7c-1.4,0-2.8-0.2-4.2-0.2c-1.4,0-2.8,0.1-4.2,0.2c0.2-3.8,0.3-7.6,0.3-11.3V88.2z"/>
	<path d="M216.9,78c-6.8,0-12,4.3-12,13.9c0,9.6,5.2,13.9,12,13.9c6.8,0,12-4.3,12-13.9C229,82.3,223.8,78,216.9,78 M216.9,76.4
		c9.6,0,16.3,5.7,16.3,15.6c0,9.9-6.7,15.5-16.3,15.5c-9.6,0-16.2-5.7-16.2-15.5C200.7,82.1,207.4,76.4,216.9,76.4"/>
	<path d="M264.2,82.3c-1.8-2.1-5.2-4.3-9.6-4.3c-7.2,0-12.7,4.3-12.7,13.9c0,8.5,4.8,13.7,13,13.7c2.5,0,5.5-0.5,6.9-1.4
		c0-1.7,0.1-3.5,0.1-5.3c0-2-0.1-4.1-0.2-6c0.6,0.1,1.4,0.2,2.1,0.2c0.7,0,1.3,0,1.9-0.2c-0.1,1.3-0.2,4.1-0.2,8.8
		c0,1.1,0,2.3,0,3.5c-2.5,0.9-7.7,2.1-11.1,2.1c-10.3,0-16.8-5.4-16.8-15.6c0-9.9,6.7-15.5,17-15.5c5.9,0,9,1.4,11.1,2.5
		c-0.4,0.8-0.9,2.3-1,3.3H264.2z"/>
	<path d="M298,82.3c-1.8-2.1-5.2-4.3-9.6-4.3c-7.2,0-12.7,4.3-12.7,13.9c0,8.5,4.8,13.7,13,13.7c2.5,0,5.5-0.5,6.9-1.4
		c0-1.7,0.1-3.5,0.1-5.3c0-2-0.1-4.1-0.2-6c0.6,0.1,1.4,0.2,2.1,0.2c0.7,0,1.3,0,1.9-0.2c-0.1,1.3-0.2,4.1-0.2,8.8
		c0,1.1,0,2.3,0,3.5c-2.5,0.9-7.7,2.1-11.1,2.1c-10.3,0-16.8-5.4-16.8-15.6c0-9.9,6.7-15.5,17-15.5c5.9,0,9,1.4,11.1,2.5
		c-0.4,0.8-0.9,2.3-1,3.3H298z"/>
	<path d="M305.9,101.2c1,2,3.1,4.5,6.9,4.5c3.9,0,6.2-2.8,6.2-6.3c0-8-13.7-4.6-13.7-14.8c0-4.8,3.6-8.2,9.4-8.2
		c2.7,0,4.7,0.6,6.4,2c-0.5,1-0.8,2-1.2,3.6h-0.5c-0.6-1.6-1.9-4.1-5.2-4.1c-3.3,0-5.6,2.2-5.6,5.4c0,8.1,13.7,4.7,13.7,14.3
		c0,5.3-3.9,9.8-10.6,9.8c-3.6,0-5.6-1.3-7.2-2.5c0.5-1.3,0.7-2.2,0.8-3.9H305.9z"/>
	<path d="M305.8,2.1c0,0.5-0.2,1-0.2,1.5c0,10.4,7.2,19.1,16.8,21.6C321.7,14.7,315.1,5.9,305.8,2.1"/>
	<path fill="#00A69D" d="M295.5,0c-13.4,0-24.5,9.7-26.7,22.4c3.4,2.2,7.5,3.5,11.9,3.5c12.4,0,22.4-10,22.4-22.4
		c0-0.8-0.2-1.6-0.2-2.4C300.5,0.5,298.1,0,295.5,0"/>
	<path fill="#00A69D" d="M295.5,54.4c2.6,0,5-0.5,7.3-1.1c0.1-0.8,0.2-1.6,0.2-2.4c0-12.4-10-22.4-22.4-22.4
		c-4.4,0-8.4,1.3-11.9,3.5C271.1,44.7,282.1,54.4,295.5,54.4"/>
	<path d="M305.8,52.4c9.3-3.8,15.9-12.6,16.7-23.1c-9.7,2.5-16.8,11.2-16.8,21.6C305.7,51.4,305.8,51.9,305.8,52.4"/>
</g>
</svg>
